# Blender v3.1.2 OBJ File: ''
# www.blender.org
o flag_red
v 0.016665 -0.000000 0.016665
v -0.016665 0.000000 -0.016665
v 0.016665 0.000000 -0.016665
v -0.016665 -0.000000 0.016665
v -0.016665 1.049895 0.016665
v 0.016665 1.049895 -0.016665
v -0.016665 1.049895 -0.016665
v 0.016665 1.049895 0.016665
v -0.008332 0.796753 0.016665
v 0.008333 0.796753 0.016665
v 0.008333 1.041562 0.016665
v -0.008332 1.041562 0.016665
v 0.000000 0.919158 0.349965
vt -1.312205 1.312205
vt 1.312205 -1.312205
vt 1.312205 1.312205
vt -1.312205 -1.312205
vt 1.312205 -1.312205
vt -1.312205 1.312205
vt -1.312205 -1.312205
vt 1.312205 1.312205
vt 1.312205 82.668900
vt -1.312205 0.000000
vt 1.312205 0.000000
vt -1.312205 82.668900
vt -1.312205 82.668900
vt 1.312205 0.000000
vt 1.312205 82.668900
vt -1.312205 0.000000
vt 1.312205 82.668900
vt -1.312205 0.000000
vt 1.312205 0.000000
vt -1.312205 82.668900
vt 1.312205 0.000000
vt -1.312205 82.668900
vt -1.312205 0.000000
vt -0.656102 62.736469
vt 0.656102 62.736469
vt 0.656102 82.012787
vt -0.656102 82.012787
vt 1.312205 82.668900
vt -0.000000 -0.916794
vt 0.656102 27.041149
vt -0.656102 27.041149
vt -0.000000 50.817348
vt -0.656102 22.859400
vt 0.656102 22.859400
vt 1.295397 82.012787
vt 1.295397 62.736469
vt 27.547689 72.374634
vt -1.295397 82.012787
vt -27.547689 72.374634
vt -1.295397 62.736469
vn 0.0000 -1.0000 -0.0000
vn 0.0000 1.0000 0.0000
vn 1.0000 0.0000 0.0000
vn 0.0000 0.0000 -1.0000
vn -1.0000 -0.0000 0.0000
vn 0.0000 -0.0000 1.0000
vn 0.0000 0.9387 0.3447
vn 0.0000 -0.9387 0.3447
vn -0.9997 -0.0000 0.0250
vn 0.9997 -0.0000 0.0250
s 1
f 1/1/1 2/2/1 3/3/1
f 2/2/1 1/1/1 4/4/1
f 5/5/2 6/6/2 7/7/2
f 6/6/2 5/5/2 8/8/2
f 6/9/3 1/10/3 3/11/3
f 1/10/3 6/9/3 8/12/3
f 6/13/4 2/14/4 7/15/4
f 2/14/4 6/13/4 3/16/4
f 5/17/5 2/18/5 4/19/5
f 2/18/5 5/17/5 7/20/5
f 1/21/6 5/22/6 4/23/6
f 5/22/6 1/21/6 9/24/6
f 9/24/6 1/21/6 10/25/6
f 10/25/6 1/21/6 11/26/6
f 12/27/6 5/22/6 9/24/6
f 5/22/6 12/27/6 8/28/6
f 8/28/6 12/27/6 11/26/6
f 8/28/6 11/26/6 1/21/6
f 13/29/7 11/30/7 12/31/7
f 13/32/8 9/33/8 10/34/8
f 12/35/9 9/36/9 13/37/9
f 11/38/10 13/39/10 10/40/10
