# Blender v3.1.2 OBJ File: ''
# www.blender.org
o holeRound
v -0.000000 0.000000 -0.499950
v -0.499950 0.000000 -0.399960
v -0.499950 0.000000 -0.499950
v 0.129396 0.000000 -0.482915
v 0.249975 0.000000 -0.432970
v 0.353518 0.000000 -0.353518
v -0.499950 -0.000000 0.399960
v 0.432969 0.000000 -0.249975
v 0.482915 0.000000 -0.129397
v 0.499950 0.000000 -0.000000
v 0.482915 -0.000000 0.129396
v 0.432970 -0.000000 0.249975
v 0.353518 -0.000000 0.353518
v 0.249975 -0.000000 0.432969
v -0.499950 -0.000000 0.499950
v 0.129397 -0.000000 0.482915
v 0.000000 -0.000000 0.499950
v -0.000000 0.146652 -0.499950
v -0.499950 0.146652 -0.499950
v -0.499950 0.146652 0.499950
v -0.499950 0.063327 0.399960
v -0.499950 0.146652 0.399960
v 0.129396 0.146652 -0.482915
v 0.249975 0.146652 -0.432970
v 0.353518 0.146652 -0.353518
v 0.432969 0.146652 -0.249975
v 0.482915 0.146652 -0.129397
v 0.499950 0.146652 -0.000000
v 0.482915 0.146652 0.129396
v 0.432970 0.146652 0.249975
v 0.353518 0.146652 0.353518
v 0.249975 0.146652 0.432969
v 0.129397 0.146652 0.482915
v 0.000000 0.146652 0.499950
v 0.000000 0.146652 0.399960
v 0.103517 0.146652 0.386332
v 0.199980 0.146652 0.346375
v 0.282815 0.146652 0.282814
v 0.346376 0.146652 0.199980
v 0.386332 0.146652 0.103517
v 0.399960 0.146652 -0.000000
v 0.386332 0.146652 -0.103517
v 0.346375 0.146652 -0.199980
v 0.282814 0.146652 -0.282815
v 0.199980 0.146652 -0.346376
v 0.103517 0.146652 -0.386332
v -0.000000 0.146652 -0.399960
v -0.499950 0.146652 -0.399960
v -0.000000 0.063327 -0.399960
v -0.499950 0.063327 -0.399960
v 0.103517 0.063327 -0.386332
v 0.199980 0.063327 -0.346376
v 0.282814 0.063327 -0.282815
v 0.346375 0.063327 -0.199980
v 0.386332 0.063327 -0.103517
v 0.399960 0.063327 -0.000000
v 0.386332 0.063327 0.103517
v 0.346376 0.063327 0.199980
v 0.282815 0.063327 0.282814
v 0.199980 0.063327 0.346375
v 0.103517 0.063327 0.386332
v 0.000000 0.063327 0.399960
v 0.047136 0.063327 0.047136
v 0.033330 0.031663 0.057729
v 0.033330 0.063327 0.057729
v 0.047136 0.031663 0.047136
v 0.057729 0.031663 0.033330
v 0.057729 0.063327 0.033330
v 0.064389 0.031663 0.017253
v 0.064389 0.063327 0.017253
v 0.066660 0.031663 -0.000000
v 0.066660 0.063327 -0.000000
v 0.064389 0.031663 -0.017253
v 0.064389 0.063327 -0.017253
v 0.057729 0.031663 -0.033330
v 0.057729 0.063327 -0.033330
v 0.047136 0.031664 -0.047136
v 0.047136 0.063327 -0.047136
v 0.033330 0.063327 -0.057729
v 0.033330 0.031664 -0.057729
v 0.017253 0.063327 -0.064389
v 0.017253 0.031664 -0.064389
v -0.000000 0.063327 -0.066660
v -0.000000 0.031664 -0.066660
v -0.017253 0.063327 -0.064389
v -0.017253 0.031664 -0.064389
v -0.033330 0.063327 -0.057729
v -0.033330 0.031664 -0.057729
v -0.047136 0.063327 -0.047136
v -0.047136 0.031664 -0.047136
v -0.057729 0.031663 -0.033330
v -0.057729 0.063327 -0.033330
v -0.064389 0.031663 -0.017253
v -0.064389 0.063327 -0.017253
v -0.066660 0.031663 0.000000
v -0.066660 0.063327 0.000000
v -0.064389 0.031663 0.017253
v -0.064389 0.063327 0.017253
v -0.057729 0.031663 0.033330
v -0.057729 0.063327 0.033330
v -0.047136 0.031663 0.047136
v -0.047136 0.063327 0.047136
v -0.033330 0.063327 0.057729
v -0.033330 0.031663 0.057729
v -0.017253 0.063327 0.064389
v -0.017253 0.031663 0.064389
v 0.000000 0.063327 0.066660
v 0.000000 0.031663 0.066660
v 0.017253 0.063327 0.064389
v 0.017253 0.031663 0.064389
vt 19.683069 0.000000
vt 15.746460 -19.683069
vt 19.683069 -19.683069
vt 19.012390 5.094354
vt 17.046040 9.841536
vt 13.918030 13.918030
vt -15.746460 -19.683069
vt 9.841536 17.046040
vt 5.094354 19.012390
vt 0.000000 19.683069
vt -5.094354 19.012390
vt -9.841536 17.046040
vt -13.918030 13.918030
vt -17.046040 9.841536
vt -19.683069 -19.683069
vt -19.012390 5.094354
vt -19.683069 0.000000
vt -0.000000 5.773701
vt 19.683069 -0.000000
vt 19.683069 5.773701
vt -0.000000 -0.000000
vt 19.683069 5.773701
vt 15.746460 -0.000000
vt 19.683069 -0.000000
vt 15.746460 2.493189
vt 15.746460 5.773701
vt -2.569156 5.773701
vt 2.569156 -0.000000
vt 2.569156 5.773701
vt -2.569156 0.000000
vt -2.569156 5.773701
vt 2.569156 0.000000
vt 2.569156 5.773701
vt -2.569156 0.000000
vt -2.569156 5.773701
vt 2.569156 0.000000
vt 2.569156 5.773701
vt -2.569156 0.000000
vt 2.569156 5.773701
vt -2.569156 0.000000
vt 2.569156 0.000000
vt -2.569156 5.773701
vt 2.569156 5.773701
vt -2.569156 0.000000
vt 2.569156 0.000000
vt -2.569156 5.773701
vt 2.569156 5.773701
vt -2.569156 0.000000
vt 2.569156 0.000000
vt -2.569156 5.773701
vt 2.569156 5.773701
vt -2.569156 0.000000
vt 2.569156 0.000000
vt -2.569156 5.773701
vt 2.569156 5.773701
vt -2.569156 0.000000
vt 2.569156 0.000000
vt -2.569156 5.773701
vt 2.569156 5.773701
vt -2.569156 0.000000
vt 2.569156 0.000000
vt -2.569156 5.773701
vt 2.569156 0.000000
vt -2.569156 5.773701
vt -2.569156 0.000000
vt 2.569156 5.773701
vt 2.569156 0.000000
vt -2.569156 5.773701
vt -2.569156 0.000000
vt 2.569156 5.773701
vt 2.569156 0.000000
vt -2.569156 5.773701
vt -2.569156 0.000000
vt 2.569156 5.773701
vt 0.000000 -0.000000
vt -19.683069 5.773701
vt -19.683069 -0.000000
vt 0.000000 5.773701
vt 19.683069 -19.683069
vt 15.746460 0.000000
vt 15.746460 -19.683069
vt 17.046040 9.841536
vt 19.012390 5.094354
vt 19.683069 0.000000
vt 15.209910 4.075483
vt 13.918030 13.918030
vt 13.636830 7.873229
vt 11.134430 11.134430
vt 9.841536 17.046040
vt 7.873229 13.636830
vt 5.094354 19.012390
vt 4.075483 15.209910
vt -0.000000 15.746460
vt -0.000000 19.683069
vt -4.075483 15.209910
vt -5.094354 19.012390
vt -7.873229 13.636830
vt -9.841536 17.046040
vt -11.134430 11.134430
vt -13.636830 7.873229
vt -13.918030 13.918030
vt -15.209910 4.075483
vt -15.746460 0.000000
vt -17.046040 9.841536
vt -15.746460 -19.683069
vt -19.012390 5.094354
vt -19.683069 0.000000
vt -19.683069 -19.683069
vt 0.000000 2.493189
vt -19.683069 5.773701
vt -19.683069 2.493189
vt 0.000000 5.773701
vt 2.055325 2.493189
vt -2.055325 5.773701
vt -2.055325 2.493189
vt 2.055325 5.773701
vt 2.055325 2.493189
vt -2.055325 5.773701
vt -2.055325 2.493189
vt 2.055325 5.773701
vt 2.055325 2.493189
vt -2.055325 5.773701
vt -2.055325 2.493189
vt 2.055325 5.773701
vt 2.055325 5.773701
vt -2.055325 2.493189
vt 2.055325 2.493189
vt -2.055325 5.773701
vt 2.055325 5.773701
vt -2.055325 2.493189
vt 2.055325 2.493189
vt -2.055325 5.773701
vt 2.055325 5.773701
vt -2.055325 2.493189
vt 2.055325 2.493189
vt -2.055325 5.773701
vt 2.055325 5.773701
vt -2.055325 2.493189
vt 2.055325 2.493189
vt -2.055325 5.773701
vt 2.055325 5.773701
vt -2.055325 2.493189
vt 2.055325 2.493189
vt -2.055325 5.773701
vt 2.055325 5.773701
vt -2.055325 2.493189
vt 2.055325 2.493189
vt -2.055325 5.773701
vt -2.055325 5.773701
vt 2.055325 2.493189
vt 2.055325 5.773701
vt -2.055325 2.493189
vt -2.055325 5.773701
vt 2.055325 2.493189
vt 2.055325 5.773701
vt -2.055325 2.493189
vt -2.055325 5.773701
vt 2.055325 2.493189
vt 2.055325 5.773701
vt -2.055325 2.493189
vt -0.000000 5.773701
vt 19.683069 2.493189
vt 19.683069 5.773701
vt -0.000000 2.493189
vt -15.746460 2.493189
vt -19.683069 0.000000
vt -15.746460 0.000000
vt -19.683069 5.773701
vt -15.746460 5.773701
vt -0.342554 2.493189
vt 0.342554 1.246594
vt 0.342554 2.493189
vt -0.342554 1.246594
vt 0.342554 2.493189
vt -0.342554 1.246594
vt 0.342554 1.246594
vt -0.342554 2.493189
vt 0.342554 2.493189
vt -0.342554 1.246594
vt 0.342554 1.246594
vt -0.342554 2.493189
vt 0.342554 2.493189
vt -0.342554 1.246594
vt 0.342554 1.246594
vt -0.342554 2.493189
vt 0.342554 2.493189
vt -0.342554 1.246594
vt 0.342554 1.246594
vt -0.342554 2.493189
vt 0.342554 2.493189
vt -0.342554 1.246594
vt 0.342554 1.246594
vt -0.342554 2.493189
vt 0.342554 2.493189
vt -0.342554 1.246594
vt 0.342554 1.246594
vt -0.342554 2.493189
vt 0.342554 1.246594
vt -0.342554 2.493189
vt -0.342554 1.246594
vt 0.342554 2.493189
vt 0.342554 1.246594
vt -0.342554 2.493189
vt -0.342554 1.246594
vt 0.342554 2.493189
vt 0.342554 1.246594
vt -0.342554 2.493189
vt -0.342554 1.246594
vt 0.342554 2.493189
vt 0.342554 1.246594
vt -0.342554 2.493189
vt -0.342554 1.246594
vt 0.342554 2.493189
vt 0.342554 1.246594
vt -0.342554 2.493189
vt -0.342554 1.246594
vt 0.342554 2.493189
vt 0.342554 1.246594
vt -0.342554 2.493189
vt -0.342554 1.246594
vt 0.342554 2.493189
vt 0.342554 2.493189
vt -0.342554 1.246594
vt 0.342554 1.246594
vt -0.342554 2.493189
vt 0.342554 2.493189
vt -0.342554 1.246594
vt 0.342554 1.246594
vt -0.342554 2.493189
vt 0.342554 2.493189
vt -0.342554 1.246594
vt 0.342554 1.246594
vt -0.342554 2.493189
vt 0.342554 2.493189
vt -0.342554 1.246594
vt 0.342554 1.246594
vt -0.342554 2.493189
vt 0.342554 2.493189
vt -0.342554 1.246594
vt 0.342554 1.246594
vt -0.342554 2.493189
vt 0.342554 2.493189
vt -0.342554 1.246594
vt 0.342554 1.246594
vt -0.342554 2.493189
vt -0.342554 2.493189
vt 0.342554 1.246594
vt 0.342554 2.493189
vt -0.342554 1.246594
vt -0.342554 2.493189
vt 0.342554 1.246594
vt 0.342554 2.493189
vt -0.342554 1.246594
vt -0.342554 2.493189
vt 0.342554 1.246594
vt 0.342554 2.493189
vt -0.342554 1.246594
vt -0.342554 2.493189
vt 0.342554 1.246594
vt 0.342554 2.493189
vt -0.342554 1.246594
vt -0.342554 2.493189
vt 0.342554 1.246594
vt 0.342554 2.493189
vt -0.342554 1.246594
vt 15.746460 -19.683069
vt -15.746460 0.000000
vt -15.746460 -19.683069
vt -15.209910 4.075483
vt -13.636830 7.873229
vt -1.855738 -1.855738
vt -2.272805 -1.312205
vt -11.134430 11.134430
vt -2.534985 -0.679247
vt -7.873229 13.636830
vt -2.624409 0.000000
vt -4.075483 15.209910
vt -1.312205 -2.272805
vt -0.679247 -2.534985
vt -0.000000 -2.624409
vt 0.679247 -2.534985
vt 1.312205 -2.272805
vt 1.855738 -1.855738
vt 2.272805 -1.312205
vt 2.534985 -0.679247
vt 2.624409 0.000000
vt 4.075483 15.209910
vt 7.873229 13.636830
vt 11.134430 11.134430
vt 13.636830 7.873229
vt 15.209910 4.075483
vt 15.746460 0.000000
vt 2.534985 0.679247
vt 2.272805 1.312205
vt 1.855738 1.855738
vt 1.312205 2.272805
vt 0.679247 2.534985
vt -0.000000 15.746460
vt -0.000000 2.624409
vt -0.679247 2.534985
vt -1.312205 2.272805
vt -1.855738 1.855738
vt -2.272805 1.312205
vt -2.534985 0.679247
vt -2.534985 -0.679247
vt -2.534985 0.679247
vt -2.624409 0.000000
vt -2.272805 -1.312205
vt -2.272805 1.312205
vt -1.855738 -1.855738
vt -1.855738 1.855738
vt -1.312205 -2.272805
vt -1.312205 2.272805
vt -0.679247 -2.534985
vt -0.679247 2.534985
vt -0.000000 -2.624409
vt -0.000000 2.624409
vt 0.679247 -2.534985
vt 0.679247 2.534985
vt 1.312205 -2.272805
vt 1.312205 2.272805
vt 1.855738 -1.855738
vt 1.855738 1.855738
vt 2.272805 -1.312205
vt 2.272805 1.312205
vt 2.534985 -0.679247
vt 2.534985 0.679247
vt 2.624409 0.000000
vn -0.0000 -1.0000 -0.0000
vn 0.0654 0.0000 -0.9979
vn -0.0000 0.0000 -1.0000
vn -1.0000 0.0000 0.0000
vn 0.2588 0.0000 -0.9659
vn 0.5000 0.0000 -0.8660
vn 0.7071 0.0000 -0.7071
vn 0.8660 0.0000 -0.5000
vn 0.9659 0.0000 -0.2588
vn 1.0000 0.0000 -0.0000
vn 0.9659 0.0000 0.2588
vn 0.8660 0.0000 0.5000
vn 0.7071 0.0000 0.7071
vn 0.5000 0.0000 0.8660
vn 0.2588 0.0000 0.9659
vn 0.0654 0.0000 0.9979
vn 0.0000 0.0000 1.0000
vn 0.0000 1.0000 0.0000
vn 0.0000 1.0000 -0.0003
vn -0.0654 0.0000 0.9979
vn -0.2588 0.0000 0.9659
vn -0.5000 0.0000 0.8660
vn -0.7071 0.0000 0.7071
vn -0.8660 0.0000 0.5000
vn -0.9659 -0.0000 0.2588
vn -0.9659 0.0000 -0.2588
vn -0.8660 0.0000 -0.5000
vn -0.7071 0.0000 -0.7071
vn -0.5000 0.0000 -0.8660
vn -0.2588 0.0000 -0.9659
vn -0.0654 0.0000 -0.9979
s 1
f 1/1/1 2/2/1 3/3/1
f 2/2/1 1/1/1 4/4/1
f 2/2/1 4/4/1 5/5/1
f 2/2/1 5/5/1 6/6/1
f 2/2/1 6/6/1 7/7/1
f 7/7/1 6/6/1 8/8/1
f 7/7/1 8/8/1 9/9/1
f 7/7/1 9/9/1 10/10/1
f 7/7/1 10/10/1 11/11/1
f 7/7/1 11/11/1 12/12/1
f 7/7/1 12/12/1 13/13/1
f 7/7/1 13/13/1 14/14/1
f 7/7/1 14/14/1 15/15/1
f 15/15/1 14/14/1 16/16/1
f 15/15/1 16/16/1 17/17/1
f 18/18/2 3/19/3 19/20/3
f 3/19/3 18/18/2 1/21/2
f 20/22/4 7/23/4 15/24/4
f 7/23/4 20/22/4 21/25/4
f 21/25/4 20/22/4 22/26/4
f 23/27/5 1/28/2 18/29/2
f 1/28/2 23/27/5 4/30/5
f 24/31/6 4/32/5 23/33/5
f 4/32/5 24/31/6 5/34/6
f 25/35/7 5/36/6 24/37/6
f 5/36/6 25/35/7 6/38/7
f 25/39/7 8/40/8 6/41/7
f 8/40/8 25/39/7 26/42/8
f 26/43/8 9/44/9 8/45/8
f 9/44/9 26/43/8 27/46/9
f 27/47/9 10/48/10 9/49/9
f 10/48/10 27/47/9 28/50/10
f 28/51/10 11/52/11 10/53/10
f 11/52/11 28/51/10 29/54/11
f 29/55/11 12/56/12 11/57/11
f 12/56/12 29/55/11 30/58/12
f 30/59/12 13/60/13 12/61/12
f 13/60/13 30/59/12 31/62/13
f 13/63/13 32/64/14 14/65/14
f 32/64/14 13/63/13 31/66/13
f 14/67/14 33/68/15 16/69/15
f 33/68/15 14/67/14 32/70/14
f 16/71/15 34/72/16 17/73/16
f 34/72/16 16/71/15 33/74/15
f 17/75/16 20/76/17 15/77/17
f 20/76/17 17/75/16 34/78/16
f 20/79/18 35/80/18 22/81/18
f 35/80/18 20/79/18 32/82/18
f 32/82/18 20/79/18 33/83/18
f 33/83/18 20/79/18 34/84/18
f 32/82/18 36/85/18 35/80/18
f 31/86/18 36/85/18 32/82/18
f 31/86/18 37/87/18 36/85/18
f 31/86/18 38/88/18 37/87/18
f 30/89/18 38/88/18 31/86/18
f 30/89/18 39/90/18 38/88/18
f 29/91/18 39/90/18 30/89/18
f 29/91/18 40/92/18 39/90/18
f 29/91/18 41/93/18 40/92/18
f 28/94/18 41/93/18 29/91/18
f 28/94/18 42/95/18 41/93/18
f 27/96/18 42/95/18 28/94/18
f 27/96/18 43/97/18 42/95/18
f 26/98/18 43/97/18 27/96/18
f 26/98/18 44/99/18 43/97/18
f 26/98/18 45/100/18 44/99/18
f 25/101/18 45/100/18 26/98/18
f 25/101/18 46/102/19 45/100/18
f 25/101/18 47/103/18 46/102/19
f 24/104/18 47/103/18 25/101/18
f 24/104/18 48/105/18 47/103/18
f 23/106/18 48/105/18 24/104/18
f 18/107/18 48/105/18 23/106/18
f 48/105/18 18/107/18 19/108/18
f 49/109/20 48/110/17 50/111/17
f 48/110/17 49/109/20 47/112/20
f 51/113/21 47/114/20 49/115/20
f 47/114/20 51/113/21 46/116/21
f 52/117/22 46/118/21 51/119/21
f 46/118/21 52/117/22 45/120/22
f 53/121/23 45/122/22 52/123/22
f 45/122/22 53/121/23 44/124/23
f 43/125/24 53/126/23 54/127/24
f 53/126/23 43/125/24 44/128/23
f 42/129/25 54/130/24 55/131/25
f 54/130/24 42/129/25 43/132/24
f 41/133/4 55/134/25 56/135/4
f 55/134/25 41/133/4 42/136/25
f 40/137/26 56/138/4 57/139/26
f 56/138/4 40/137/26 41/140/4
f 39/141/27 57/142/26 58/143/27
f 57/142/26 39/141/27 40/144/26
f 38/145/28 58/146/27 59/147/28
f 58/146/27 38/145/28 39/148/27
f 38/149/28 60/150/29 37/151/29
f 60/150/29 38/149/28 59/152/28
f 37/153/29 61/154/30 36/155/30
f 61/154/30 37/153/29 60/156/29
f 36/157/30 62/158/31 35/159/31
f 62/158/31 36/157/30 61/160/30
f 35/161/31 21/162/3 22/163/3
f 21/162/3 35/161/31 62/164/31
f 50/165/4 3/166/4 2/167/4
f 3/166/4 50/165/4 19/168/4
f 19/168/4 50/165/4 48/169/4
f 63/170/28 64/171/29 65/172/29
f 64/171/29 63/170/28 66/173/28
f 63/174/28 67/175/27 66/176/28
f 67/175/27 63/174/28 68/177/27
f 68/178/27 69/179/26 67/180/27
f 69/179/26 68/178/27 70/181/26
f 70/182/26 71/183/4 69/184/26
f 71/183/4 70/182/26 72/185/4
f 72/186/4 73/187/25 71/188/4
f 73/187/25 72/186/4 74/189/25
f 74/190/25 75/191/24 73/192/25
f 75/191/24 74/190/25 76/193/24
f 76/194/24 77/195/23 75/196/24
f 77/195/23 76/194/24 78/197/23
f 77/198/23 79/199/22 80/200/22
f 79/199/22 77/198/23 78/201/23
f 80/202/22 81/203/21 82/204/21
f 81/203/21 80/202/22 79/205/22
f 82/206/21 83/207/17 84/208/17
f 83/207/17 82/206/21 81/209/21
f 84/210/17 85/211/15 86/212/15
f 85/211/15 84/210/17 83/213/17
f 86/214/15 87/215/14 88/216/14
f 87/215/14 86/214/15 85/217/15
f 88/218/14 89/219/13 90/220/13
f 89/219/13 88/218/14 87/221/14
f 89/222/13 91/223/12 90/224/13
f 91/223/12 89/222/13 92/225/12
f 92/226/12 93/227/11 91/228/12
f 93/227/11 92/226/12 94/229/11
f 94/230/11 95/231/10 93/232/11
f 95/231/10 94/230/11 96/233/10
f 96/234/10 97/235/9 95/236/10
f 97/235/9 96/234/10 98/237/9
f 98/238/9 99/239/8 97/240/9
f 99/239/8 98/238/9 100/241/8
f 100/242/8 101/243/7 99/244/8
f 101/243/7 100/242/8 102/245/7
f 103/246/6 101/247/7 102/248/7
f 101/247/7 103/246/6 104/249/6
f 105/250/5 104/251/6 103/252/6
f 104/251/6 105/250/5 106/253/5
f 107/254/3 106/255/5 105/256/5
f 106/255/5 107/254/3 108/257/3
f 109/258/30 108/259/3 107/260/3
f 108/259/3 109/258/30 110/261/30
f 65/262/29 110/263/30 109/264/30
f 110/263/30 65/262/29 64/265/29
f 21/266/18 49/267/18 50/268/18
f 49/267/18 21/266/18 51/269/18
f 51/269/18 21/266/18 52/270/18
f 52/270/18 21/266/18 89/271/18
f 52/270/18 89/271/18 87/272/18
f 52/270/18 87/272/18 53/273/18
f 53/273/18 87/272/18 85/274/18
f 53/273/18 85/274/18 54/275/18
f 54/275/18 85/274/18 83/276/18
f 54/275/18 83/276/18 55/277/18
f 89/271/18 21/266/18 92/278/18
f 92/278/18 21/266/18 94/279/18
f 94/279/18 21/266/18 96/280/18
f 96/280/18 21/266/18 98/281/18
f 98/281/18 21/266/18 100/282/18
f 100/282/18 21/266/18 102/283/18
f 102/283/18 21/266/18 103/284/18
f 103/284/18 21/266/18 105/285/18
f 105/285/18 21/266/18 107/286/18
f 107/286/18 21/266/18 57/287/18
f 57/287/18 21/266/18 58/288/18
f 58/288/18 21/266/18 59/289/18
f 59/289/18 21/266/18 60/290/18
f 60/290/18 21/266/18 61/291/18
f 61/291/18 21/266/18 62/292/18
f 57/287/18 109/293/18 107/286/18
f 57/287/18 65/294/18 109/293/18
f 57/287/18 63/295/18 65/294/18
f 57/287/18 68/296/18 63/295/18
f 57/287/18 70/297/18 68/296/18
f 56/298/18 70/297/18 57/287/18
f 56/298/18 72/299/18 70/297/18
f 56/298/18 74/300/18 72/299/18
f 56/298/18 76/301/18 74/300/18
f 56/298/18 78/302/18 76/301/18
f 56/298/18 79/303/18 78/302/18
f 56/298/18 81/304/18 79/303/18
f 55/277/18 81/304/18 56/298/18
f 81/304/18 55/277/18 83/276/18
f 21/25/4 2/167/4 7/23/4
f 2/167/4 21/25/4 50/165/4
f 86/305/18 82/306/18 84/307/18
f 82/306/18 86/305/18 88/308/18
f 82/306/18 88/308/18 80/309/18
f 80/309/18 88/308/18 90/310/18
f 80/309/18 90/310/18 77/311/18
f 77/311/18 90/310/18 91/312/18
f 77/311/18 91/312/18 75/313/18
f 75/313/18 91/312/18 93/314/18
f 75/313/18 93/314/18 73/315/18
f 73/315/18 93/314/18 95/316/18
f 73/315/18 95/316/18 71/317/18
f 71/317/18 95/316/18 97/318/18
f 71/317/18 97/318/18 69/319/18
f 69/319/18 97/318/18 99/320/18
f 69/319/18 99/320/18 67/321/18
f 67/321/18 99/320/18 101/322/18
f 67/321/18 101/322/18 66/323/18
f 66/323/18 101/322/18 104/324/18
f 66/323/18 104/324/18 64/325/18
f 64/325/18 104/324/18 106/326/18
f 64/325/18 106/326/18 110/327/18
f 110/327/18 106/326/18 108/328/18
