# Blender v3.1.2 OBJ File: ''
# www.blender.org
o holeOpen
v 0.499950 -0.000000 0.499950
v -0.499950 0.000000 -0.499950
v 0.499950 0.000000 -0.499950
v -0.499950 -0.000000 0.499950
v 0.499950 0.063327 -0.499950
v -0.499950 0.063327 -0.499950
v -0.047136 0.063327 -0.047136
v -0.499950 0.063327 0.499950
v -0.033330 0.063327 -0.057729
v -0.017253 0.063327 -0.064389
v -0.000000 0.063327 -0.066660
v -0.057729 0.063327 -0.033330
v -0.064389 0.063327 -0.017253
v -0.066660 0.063327 0.000000
v -0.064389 0.063327 0.017253
v -0.057729 0.063327 0.033330
v -0.047136 0.063327 0.047136
v -0.033330 0.063327 0.057729
v -0.017253 0.063327 0.064389
v 0.000000 0.063327 0.066660
v 0.017253 0.063327 -0.064389
v 0.499950 0.063327 0.499950
v 0.017253 0.063327 0.064389
v 0.033330 0.063327 0.057729
v 0.047136 0.063327 0.047136
v 0.057729 0.063327 0.033330
v 0.064389 0.063327 0.017253
v 0.066660 0.063327 -0.000000
v 0.064389 0.063327 -0.017253
v 0.057729 0.063327 -0.033330
v 0.047136 0.063327 -0.047136
v 0.033330 0.063327 -0.057729
v -0.017253 0.031664 -0.064389
v 0.017253 0.031664 -0.064389
v -0.000000 0.031664 -0.066660
v -0.033330 0.031664 -0.057729
v 0.033330 0.031664 -0.057729
v -0.047136 0.031664 -0.047136
v 0.047136 0.031664 -0.047136
v -0.057729 0.031663 -0.033330
v 0.057729 0.031663 -0.033330
v -0.064389 0.031663 -0.017253
v 0.064389 0.031663 -0.017253
v -0.066660 0.031663 0.000000
v 0.066660 0.031663 -0.000000
v -0.064389 0.031663 0.017253
v 0.064389 0.031663 0.017253
v -0.057729 0.031663 0.033330
v 0.057729 0.031663 0.033330
v -0.047136 0.031663 0.047136
v 0.047136 0.031663 0.047136
v -0.033330 0.031663 0.057729
v 0.033330 0.031663 0.057729
v -0.017253 0.031663 0.064389
v 0.017253 0.031663 0.064389
v 0.000000 0.031663 0.066660
vt -19.683069 19.683069
vt 19.683069 -19.683069
vt 19.683069 19.683069
vt -19.683069 -19.683069
vt -19.683069 2.493189
vt 19.683069 -0.000000
vt 19.683069 2.493189
vt -19.683069 -0.000000
vt -19.683069 -19.683069
vt -1.855738 -1.855738
vt -19.683069 19.683069
vt 19.683069 -19.683069
vt -2.272805 -1.312205
vt -2.534985 -0.679247
vt -2.624409 0.000000
vt -1.312205 -2.272805
vt -0.679247 -2.534985
vt -0.000000 -2.624409
vt 0.679247 -2.534985
vt 1.312205 -2.272805
vt 1.855738 -1.855738
vt 2.272805 -1.312205
vt 2.534985 -0.679247
vt 2.624409 0.000000
vt -2.534985 0.679247
vt 19.683069 19.683069
vt 2.534985 0.679247
vt 2.272805 1.312205
vt 1.855738 1.855738
vt 1.312205 2.272805
vt 0.679247 2.534985
vt -0.000000 2.624409
vt -0.679247 2.534985
vt -1.312205 2.272805
vt -1.855738 1.855738
vt -2.272805 1.312205
vt 19.683069 0.000000
vt -19.683069 2.493189
vt -19.683069 0.000000
vt 19.683069 2.493189
vt 19.683069 2.493189
vt -19.683069 0.000000
vt 19.683069 0.000000
vt -19.683069 2.493189
vt 19.683069 2.493189
vt -19.683069 0.000000
vt 19.683069 0.000000
vt -19.683069 2.493189
vt -2.534985 -0.679247
vt -2.534985 0.679247
vt -2.624409 0.000000
vt -2.272805 -1.312205
vt -2.272805 1.312205
vt -1.855738 -1.855738
vt -1.855738 1.855738
vt -1.312205 -2.272805
vt -1.312205 2.272805
vt -0.679247 -2.534985
vt -0.679247 2.534985
vt -0.000000 -2.624409
vt -0.000000 2.624409
vt 0.679247 -2.534985
vt 0.679247 2.534985
vt 1.312205 -2.272805
vt 1.312205 2.272805
vt 1.855738 -1.855738
vt 1.855738 1.855738
vt 2.272805 -1.312205
vt 2.272805 1.312205
vt 2.534985 -0.679247
vt 2.534985 0.679247
vt 2.624409 0.000000
vt -0.342554 2.493189
vt 0.342554 1.246594
vt 0.342554 2.493189
vt -0.342554 1.246594
vt 0.342554 2.493189
vt -0.342554 1.246594
vt 0.342554 1.246594
vt -0.342554 2.493189
vt 0.342554 2.493189
vt -0.342554 1.246594
vt 0.342554 1.246594
vt -0.342554 2.493189
vt 0.342554 2.493189
vt -0.342554 1.246594
vt 0.342554 1.246594
vt -0.342554 2.493189
vt 0.342554 2.493189
vt -0.342554 1.246594
vt 0.342554 1.246594
vt -0.342554 2.493189
vt 0.342554 2.493189
vt -0.342554 1.246594
vt 0.342554 1.246594
vt -0.342554 2.493189
vt 0.342554 2.493189
vt -0.342554 1.246594
vt 0.342554 1.246594
vt -0.342554 2.493189
vt 0.342554 1.246594
vt -0.342554 2.493189
vt -0.342554 1.246594
vt 0.342554 2.493189
vt 0.342554 1.246594
vt -0.342554 2.493189
vt -0.342554 1.246594
vt 0.342554 2.493189
vt 0.342554 1.246594
vt -0.342554 2.493189
vt -0.342554 1.246594
vt 0.342554 2.493189
vt 0.342554 1.246594
vt -0.342554 2.493189
vt -0.342554 1.246594
vt 0.342554 2.493189
vt 0.342554 1.246594
vt -0.342554 2.493189
vt -0.342554 1.246594
vt 0.342554 2.493189
vt 0.342554 1.246594
vt -0.342554 2.493189
vt -0.342554 1.246594
vt 0.342554 2.493189
vt 0.342554 2.493189
vt -0.342554 1.246594
vt 0.342554 1.246594
vt -0.342554 2.493189
vt 0.342554 2.493189
vt -0.342554 1.246594
vt 0.342554 1.246594
vt -0.342554 2.493189
vt 0.342554 2.493189
vt -0.342554 1.246594
vt 0.342554 1.246594
vt -0.342554 2.493189
vt 0.342554 2.493189
vt -0.342554 1.246594
vt 0.342554 1.246594
vt -0.342554 2.493189
vt 0.342554 2.493189
vt -0.342554 1.246594
vt 0.342554 1.246594
vt -0.342554 2.493189
vt 0.342554 2.493189
vt -0.342554 1.246594
vt 0.342554 1.246594
vt -0.342554 2.493189
vt -0.342554 2.493189
vt 0.342554 1.246594
vt 0.342554 2.493189
vt -0.342554 1.246594
vt -0.342554 2.493189
vt 0.342554 1.246594
vt 0.342554 2.493189
vt -0.342554 1.246594
vt -0.342554 2.493189
vt 0.342554 1.246594
vt 0.342554 2.493189
vt -0.342554 1.246594
vt -0.342554 2.493189
vt 0.342554 1.246594
vt 0.342554 2.493189
vt -0.342554 1.246594
vt -0.342554 2.493189
vt 0.342554 1.246594
vt 0.342554 2.493189
vt -0.342554 1.246594
vn 0.0000 -1.0000 -0.0000
vn -0.0000 0.0000 -1.0000
vn 0.0000 1.0000 0.0000
vn 0.0000 0.0000 1.0000
vn 1.0000 0.0000 -0.0000
vn -1.0000 0.0000 0.0000
vn -0.7071 0.0000 -0.7071
vn -0.5000 0.0000 -0.8660
vn -0.8660 0.0000 -0.5000
vn -0.9659 0.0000 -0.2588
vn -0.9659 -0.0000 0.2588
vn -0.8660 -0.0000 0.5000
vn -0.7071 -0.0000 0.7071
vn -0.5000 -0.0000 0.8660
vn -0.2588 -0.0000 0.9659
vn 0.2588 0.0000 0.9659
vn 0.5000 -0.0000 0.8660
vn 0.7071 -0.0000 0.7071
vn 0.8660 -0.0000 0.5000
vn 0.9659 0.0000 0.2588
vn 0.9659 0.0000 -0.2588
vn 0.8660 0.0000 -0.5000
vn 0.7071 0.0000 -0.7071
vn 0.5000 0.0000 -0.8660
vn 0.2588 0.0000 -0.9659
vn -0.2588 0.0000 -0.9659
s 1
f 1/1/1 2/2/1 3/3/1
f 2/2/1 1/1/1 4/4/1
f 5/5/2 2/6/2 6/7/2
f 2/6/2 5/5/2 3/8/2
f 6/9/3 7/10/3 5/11/3
f 7/10/3 6/9/3 8/12/3
f 5/11/3 7/10/3 9/13/3
f 5/11/3 9/13/3 10/14/3
f 5/11/3 10/14/3 11/15/3
f 7/10/3 8/12/3 12/16/3
f 12/16/3 8/12/3 13/17/3
f 13/17/3 8/12/3 14/18/3
f 14/18/3 8/12/3 15/19/3
f 15/19/3 8/12/3 16/20/3
f 16/20/3 8/12/3 17/21/3
f 17/21/3 8/12/3 18/22/3
f 18/22/3 8/12/3 19/23/3
f 19/23/3 8/12/3 20/24/3
f 21/25/3 5/11/3 11/15/3
f 22/26/3 20/24/3 8/12/3
f 22/26/3 23/27/3 20/24/3
f 22/26/3 24/28/3 23/27/3
f 22/26/3 25/29/3 24/28/3
f 22/26/3 26/30/3 25/29/3
f 22/26/3 27/31/3 26/30/3
f 22/26/3 28/32/3 27/31/3
f 22/26/3 29/33/3 28/32/3
f 22/26/3 30/34/3 29/33/3
f 22/26/3 31/35/3 30/34/3
f 5/11/3 31/35/3 22/26/3
f 31/35/3 5/11/3 32/36/3
f 32/36/3 5/11/3 21/25/3
f 1/37/4 8/38/4 4/39/4
f 8/38/4 1/37/4 22/40/4
f 5/41/5 1/42/5 3/43/5
f 1/42/5 5/41/5 22/44/5
f 8/45/6 2/46/6 4/47/6
f 2/46/6 8/45/6 6/48/6
f 33/49/3 34/50/3 35/51/3
f 34/50/3 33/49/3 36/52/3
f 34/50/3 36/52/3 37/53/3
f 37/53/3 36/52/3 38/54/3
f 37/53/3 38/54/3 39/55/3
f 39/55/3 38/54/3 40/56/3
f 39/55/3 40/56/3 41/57/3
f 41/57/3 40/56/3 42/58/3
f 41/57/3 42/58/3 43/59/3
f 43/59/3 42/58/3 44/60/3
f 43/59/3 44/60/3 45/61/3
f 45/61/3 44/60/3 46/62/3
f 45/61/3 46/62/3 47/63/3
f 47/63/3 46/62/3 48/64/3
f 47/63/3 48/64/3 49/65/3
f 49/65/3 48/64/3 50/66/3
f 49/65/3 50/66/3 51/67/3
f 51/67/3 50/66/3 52/68/3
f 51/67/3 52/68/3 53/69/3
f 53/69/3 52/68/3 54/70/3
f 53/69/3 54/70/3 55/71/3
f 55/71/3 54/70/3 56/72/3
f 25/73/7 53/74/8 24/75/8
f 53/74/8 25/73/7 51/76/7
f 25/77/7 49/78/9 51/79/7
f 49/78/9 25/77/7 26/80/9
f 26/81/9 47/82/10 49/83/9
f 47/82/10 26/81/9 27/84/10
f 27/85/10 45/86/6 47/87/10
f 45/86/6 27/85/10 28/88/6
f 28/89/6 43/90/11 45/91/6
f 43/90/11 28/89/6 29/92/11
f 29/93/11 41/94/12 43/95/11
f 41/94/12 29/93/11 30/96/12
f 30/97/12 39/98/13 41/99/12
f 39/98/13 30/97/12 31/100/13
f 39/101/13 32/102/14 37/103/14
f 32/102/14 39/101/13 31/104/13
f 37/105/14 21/106/15 34/107/15
f 21/106/15 37/105/14 32/108/14
f 34/109/15 11/110/4 35/111/4
f 11/110/4 34/109/15 21/112/15
f 35/113/4 10/114/16 33/115/16
f 10/114/16 35/113/4 11/116/4
f 33/117/16 9/118/17 36/119/17
f 9/118/17 33/117/16 10/120/16
f 36/121/17 7/122/18 38/123/18
f 7/122/18 36/121/17 9/124/17
f 7/125/18 40/126/19 38/127/18
f 40/126/19 7/125/18 12/128/19
f 12/129/19 42/130/20 40/131/19
f 42/130/20 12/129/19 13/132/20
f 13/133/20 44/134/5 42/135/20
f 44/134/5 13/133/20 14/136/5
f 14/137/5 46/138/21 44/139/5
f 46/138/21 14/137/5 15/140/21
f 15/141/21 48/142/22 46/143/21
f 48/142/22 15/141/21 16/144/22
f 16/145/22 50/146/23 48/147/22
f 50/146/23 16/145/22 17/148/23
f 18/149/24 50/150/23 17/151/23
f 50/150/23 18/149/24 52/152/24
f 19/153/25 52/154/24 18/155/24
f 52/154/24 19/153/25 54/156/25
f 20/157/2 54/158/25 19/159/25
f 54/158/25 20/157/2 56/160/2
f 23/161/26 56/162/2 20/163/2
f 56/162/2 23/161/26 55/164/26
f 24/165/8 55/166/26 23/167/26
f 55/166/26 24/165/8 53/168/8
