# Blender v3.1.2 OBJ File: ''
# www.blender.org
o bumpDownWalls
v 0.499950 0.146652 -0.499950
v 0.499950 0.000000 -0.399960
v 0.499950 0.000000 -0.499950
v 0.499950 0.063327 -0.399960
v 0.499950 0.146652 -0.399960
v -0.499950 0.000000 -0.399960
v -0.499950 0.000000 -0.499950
v -0.499950 -0.000000 0.399960
v 0.499950 -0.000000 0.399960
v -0.499950 -0.000000 0.499950
v 0.499950 -0.000000 0.499950
v -0.499950 0.146652 -0.499950
v -0.499950 0.146652 0.499950
v 0.499950 0.146652 0.399960
v -0.499950 0.146652 0.399960
v 0.499950 0.146652 0.499950
v -0.499950 0.063327 0.399960
v -0.499950 0.146652 -0.399960
v -0.499950 0.063327 -0.399960
v 0.499950 0.063327 0.399960
v 0.003049 0.065664 -0.329110
v -0.165916 0.066473 -0.287813
v -0.223818 0.067211 -0.217888
v -0.279803 0.068412 -0.051750
v 0.170395 0.065344 -0.330192
v -0.237395 0.064692 0.100125
v -0.225333 0.061404 0.159654
v -0.192492 0.060068 0.203649
v -0.207119 0.060841 0.271190
v -0.202609 0.061297 0.309336
v -0.184641 0.061499 0.329542
v -0.137221 0.061615 0.338147
v 0.007835 0.061949 0.342488
v 0.187418 0.065629 -0.310266
v 0.164449 0.061620 0.338705
v 0.209767 0.061486 0.331974
v 0.214391 0.061532 0.316647
v 0.206005 0.061768 0.281666
v 0.182596 0.063105 0.210723
v 0.222251 0.068254 0.154847
v 0.230074 0.067092 0.094364
v 0.263757 0.067593 -0.105801
v 0.220657 0.066218 -0.222849
v 0.201624 0.065923 -0.277707
v -0.019741 0.066564 -0.280921
v 0.073416 0.066444 -0.267482
v 0.074182 0.066174 -0.300245
v -0.066001 0.067351 -0.228921
v 0.066870 0.066906 -0.209074
v -0.091071 0.067716 -0.141144
v 0.071084 0.067341 -0.121703
v -0.094508 0.066554 -0.041648
v 0.080687 0.067614 -0.025317
v -0.087270 0.063778 0.034549
v 0.077674 0.066846 0.062521
v -0.085054 0.058783 0.091349
v 0.068285 0.064380 0.113277
v -0.062603 0.057349 0.117201
v 0.038516 0.061157 0.127177
v -0.073047 0.059179 0.187203
v 0.059931 0.060938 0.220840
v -0.067340 0.060714 0.261126
v 0.073623 0.061141 0.280729
v -0.054692 0.061078 0.300098
v 0.083562 0.061251 0.311426
v -0.030825 0.061237 0.319802
v 0.089102 0.061241 0.323054
v 0.018699 0.061447 0.330512
vt 19.683069 5.773701
vt 15.746460 0.000000
vt 19.683069 0.000000
vt 15.746460 2.493189
vt 15.746460 5.773701
vt 19.683069 19.683069
vt 15.746460 -19.683069
vt 19.683069 -19.683069
vt 15.746460 19.683069
vt -15.746460 -19.683069
vt -15.746460 19.683069
vt -19.683069 -19.683069
vt -19.683069 19.683069
vt -19.683069 5.773701
vt 19.683069 0.000000
vt 19.683069 5.773701
vt -19.683069 0.000000
vt 19.683069 -19.683069
vt 15.746460 19.683069
vt 15.746460 -19.683069
vt 19.683069 19.683069
vt 19.683069 0.000000
vt -19.683069 5.773701
vt -19.683069 0.000000
vt 19.683069 5.773701
vt 19.683069 5.773701
vt 15.746460 -0.000000
vt 19.683069 -0.000000
vt 15.746460 2.493189
vt 15.746460 5.773701
vt -15.746460 -19.683069
vt -19.683069 19.683069
vt -19.683069 -19.683069
vt -15.746460 19.683069
vt 19.683069 2.493189
vt -19.683069 5.773701
vt -19.683069 2.493189
vt 19.683069 5.773701
vt -19.683069 5.773701
vt 19.683069 2.493189
vt 19.683069 5.773701
vt -19.683069 2.493189
vt -15.746460 2.493189
vt -19.683069 0.000000
vt -15.746460 0.000000
vt -19.683069 5.773701
vt -15.746460 5.773701
vt -15.746460 2.493189
vt -19.683069 0.000000
vt -15.746460 0.000000
vt -19.683069 5.773701
vt -15.746460 5.773701
vt -15.746460 -19.683069
vt -11.407430 -3.056612
vt -15.746460 19.683069
vt -10.227620 -5.904921
vt -8.350820 -8.350820
vt -5.904921 -10.227620
vt 15.746460 -19.683069
vt -11.809840 0.000000
vt -3.056612 -11.407430
vt -0.000000 -11.809840
vt 3.056612 -11.407430
vt 5.904921 -10.227620
vt 8.350820 -8.350820
vt 10.227620 -5.904921
vt 11.407430 -3.056612
vt 11.809840 0.000000
vt -11.407430 3.056612
vt 15.746460 19.683069
vt 11.407430 3.056612
vt 10.227620 5.904921
vt 8.350820 8.350820
vt 5.904921 10.227620
vt 3.056612 11.407430
vt -0.000000 11.809840
vt -3.056612 11.407430
vt -5.904921 10.227620
vt -8.350820 8.350820
vt -10.227620 5.904921
vt -5.703716 -1.528306
vt -5.703716 1.528306
vt -5.904921 0.000000
vt -5.113812 -2.952461
vt -5.113812 2.952461
vt -4.175410 -4.175410
vt -4.175410 4.175410
vt -2.952461 -5.113812
vt -2.952461 5.113812
vt -1.528306 -5.703716
vt -1.528306 5.703716
vt -0.000000 -5.904921
vt -0.000000 5.904921
vt 1.528306 -5.703716
vt 1.528306 5.703716
vt 2.952461 -5.113812
vt 2.952461 5.113812
vt 4.175410 -4.175410
vt 4.175410 4.175410
vt 5.113812 -2.952461
vt 5.113812 2.952461
vt 5.703716 -1.528306
vt 5.703716 1.528306
vt 5.904921 0.000000
vt -0.770747 5.970961
vt 1.541494 11.970620
vt -1.541494 11.970620
vt 0.770747 5.970961
vt 1.541494 11.970620
vt -0.770747 5.970961
vt 0.770747 5.970961
vt -1.541494 11.970620
vt 0.770747 5.970961
vt -1.541494 11.970620
vt -0.770747 5.970961
vt 1.541494 11.970620
vt 1.541494 11.970620
vt -0.770747 5.970961
vt 0.770747 5.970961
vt -1.541494 11.970620
vt 1.541494 11.970620
vt -0.770747 5.970961
vt 0.770747 5.970961
vt -1.541494 11.970620
vt 0.770747 5.970961
vt -1.541494 11.970620
vt -0.770747 5.970961
vt 1.541494 11.970620
vt -0.770747 5.970961
vt 1.541494 11.970620
vt -1.541494 11.970620
vt 0.770747 5.970961
vt -1.541494 11.970620
vt 0.770747 5.970961
vt 1.541494 11.970620
vt -0.770747 5.970961
vt 0.770747 5.970961
vt -1.541494 11.970620
vt -0.770747 5.970961
vt 1.541494 11.970620
vt 0.770747 5.970961
vt -1.541494 11.970620
vt -0.770747 5.970961
vt 1.541494 11.970620
vt 0.770747 5.970961
vt -1.541494 11.970620
vt -0.770747 5.970961
vt 1.541494 11.970620
vt -0.770747 5.970961
vt 1.541494 11.970620
vt -1.541494 11.970620
vt 0.770747 5.970961
vt 1.541494 11.970620
vt -0.770747 5.970961
vt 0.770747 5.970961
vt -1.541494 11.970620
vt -1.541494 11.970620
vt 0.770747 5.970961
vt 1.541494 11.970620
vt -0.770747 5.970961
vt -0.770747 5.970961
vt 1.541494 11.970620
vt -1.541494 11.970620
vt 0.770747 5.970961
vt -0.770747 5.970961
vt 1.541494 11.970620
vt -1.541494 11.970620
vt 0.770747 5.970961
vt -0.770747 5.970961
vt 1.541494 11.970620
vt -1.541494 11.970620
vt 0.770747 5.970961
vt -0.770747 5.970961
vt 1.541494 11.970620
vt -1.541494 11.970620
vt 0.770747 5.970961
vt -1.541494 11.970620
vt 0.770747 5.970961
vt 1.541494 11.970620
vt -0.770747 5.970961
vt -1.541494 11.970620
vt 0.770747 5.970961
vt 1.541494 11.970620
vt -0.770747 5.970961
vt -1.541494 11.970620
vt 0.770747 5.970961
vt 1.541494 11.970620
vt -0.770747 5.970961
vt -1.541494 11.970620
vt 0.770747 5.970961
vt 1.541494 11.970620
vt -0.770747 5.970961
vt -1.541494 11.970620
vt 0.770747 5.970961
vt 1.541494 11.970620
vt -0.770747 5.970961
vt 1.541494 11.970620
vt -0.770747 5.970961
vt 0.770747 5.970961
vt -1.541494 11.970620
vn 1.0000 0.0000 0.0000
vn 0.0000 -1.0000 -0.0000
vn 0.0000 0.0000 -1.0000
vn 0.0000 1.0000 0.0000
vn 0.0000 0.0000 1.0000
vn -1.0000 0.0000 0.0000
vn -0.0112 0.9999 -0.0108
vn 0.0002 0.9997 -0.0257
vn 0.0094 0.9999 -0.0088
vn -0.0018 0.9998 -0.0181
vn -0.0037 0.9999 -0.0102
vn -0.0044 1.0000 0.0053
vn 0.0029 1.0000 0.0024
vn 0.0024 0.9998 -0.0188
vn 0.0234 0.9992 0.0332
vn 0.0331 0.9989 0.0334
vn 0.0142 0.9999 0.0009
vn 0.0027 0.9999 -0.0120
vn 0.0020 0.9999 -0.0120
vn 0.0014 0.9999 -0.0155
vn -0.0002 0.9997 -0.0260
vn -0.0002 0.9994 -0.0335
vn 0.0033 0.9999 -0.0134
vn 0.0024 1.0000 0.0061
vn 0.0004 0.9996 -0.0286
vn -0.0025 0.9999 -0.0106
vn -0.0060 1.0000 0.0049
vn -0.0105 0.9998 0.0153
vn -0.0289 0.9987 0.0427
vn -0.0078 0.9998 0.0204
vn 0.0081 1.0000 -0.0045
vn 0.0072 1.0000 -0.0036
vn 0.0029 1.0000 -0.0094
vn 0.0043 1.0000 -0.0087
vn 0.0013 0.9999 -0.0154
vn 0.0035 1.0000 -0.0082
vn 0.0025 0.9999 -0.0149
vn 0.0012 1.0000 -0.0087
vn 0.0038 1.0000 -0.0060
vn 0.0024 1.0000 0.0020
vn -0.0000 1.0000 -0.0032
vn 0.0040 0.9998 0.0208
vn -0.0062 1.0000 0.0048
vn 0.0052 0.9986 0.0526
vn -0.0222 0.9995 0.0237
vn 0.0134 0.9977 0.0668
vn -0.0488 0.9967 0.0652
vn -0.0191 0.9993 0.0320
vn -0.0392 0.9972 0.0643
vn -0.0070 0.9998 -0.0198
vn -0.0105 0.9999 0.0017
vn -0.0022 0.9999 -0.0141
vn -0.0027 1.0000 -0.0027
vn -0.0000 1.0000 -0.0089
vn -0.0012 1.0000 -0.0011
vn -0.0000 0.9999 -0.0136
vn -0.0006 0.9999 -0.0116
vn 0.0005 0.9995 -0.0315
s 1
f 1/1/1 2/2/1 3/3/1
f 2/2/1 1/1/1 4/4/1
f 4/4/1 1/1/1 5/5/1
f 3/6/2 6/7/2 7/8/2
f 6/7/2 3/6/2 2/9/2
f 6/7/2 2/9/2 8/10/2
f 8/10/2 2/9/2 9/11/2
f 8/10/2 9/11/2 10/12/2
f 10/12/2 9/11/2 11/13/2
f 1/14/3 7/15/3 12/16/3
f 7/15/3 1/14/3 3/17/3
f 13/18/4 14/19/4 15/20/4
f 14/19/4 13/18/4 16/21/4
f 11/22/5 13/23/5 10/24/5
f 13/23/5 11/22/5 16/25/5
f 13/26/6 8/27/6 10/28/6
f 8/27/6 13/26/6 17/29/6
f 17/29/6 13/26/6 15/30/6
f 18/31/4 1/32/4 12/33/4
f 1/32/4 18/31/4 5/34/4
f 4/35/5 18/36/5 19/37/5
f 18/36/5 4/35/5 5/38/5
f 14/39/3 17/40/3 15/41/3
f 17/40/3 14/39/3 20/42/3
f 20/43/1 11/44/1 9/45/1
f 11/44/1 20/43/1 16/46/1
f 16/46/1 20/43/1 14/47/1
f 19/48/6 7/49/6 6/50/6
f 7/49/6 19/48/6 12/51/6
f 12/51/6 19/48/6 18/52/6
f 19/53/7 21/54/8 4/55/9
f 21/54/8 19/53/7 22/56/10
f 22/56/10 19/53/7 23/57/11
f 23/57/11 19/53/7 24/58/12
f 24/58/12 19/53/7 17/59/13
f 4/55/9 21/54/8 25/60/14
f 24/58/12 17/59/13 26/61/15
f 26/61/15 17/59/13 27/62/16
f 27/62/16 17/59/13 28/63/17
f 28/63/17 17/59/13 29/64/18
f 29/64/18 17/59/13 30/65/19
f 30/65/19 17/59/13 31/66/20
f 31/66/20 17/59/13 32/67/21
f 32/67/21 17/59/13 33/68/22
f 34/69/23 4/55/9 25/60/14
f 20/70/24 33/68/22 17/59/13
f 20/70/24 35/71/25 33/68/22
f 20/70/24 36/72/26 35/71/25
f 20/70/24 37/73/27 36/72/26
f 20/70/24 38/74/28 37/73/27
f 20/70/24 39/75/29 38/74/28
f 20/70/24 40/76/30 39/75/29
f 20/70/24 41/77/31 40/76/30
f 20/70/24 42/78/32 41/77/31
f 4/55/9 42/78/32 20/70/24
f 42/78/32 4/55/9 43/79/33
f 43/79/33 4/55/9 44/80/34
f 44/80/34 4/55/9 34/69/23
f 4/4/1 9/45/1 2/2/1
f 9/45/1 4/4/1 20/43/1
f 17/29/6 6/50/6 8/27/6
f 6/50/6 17/29/6 19/48/6
f 45/81/35 46/82/36 47/83/37
f 46/82/36 45/81/35 48/84/38
f 46/82/36 48/84/38 49/85/39
f 49/85/39 48/84/38 50/86/40
f 49/85/39 50/86/40 51/87/41
f 51/87/41 50/86/40 52/88/42
f 51/87/41 52/88/42 53/89/43
f 53/89/43 52/88/42 54/90/44
f 53/89/43 54/90/44 55/91/45
f 55/91/45 54/90/44 56/92/46
f 55/91/45 56/92/46 57/93/47
f 57/93/47 56/92/46 58/94/48
f 57/93/47 58/94/48 59/95/49
f 59/95/49 58/94/48 60/96/50
f 59/95/49 60/96/50 61/97/51
f 61/97/51 60/96/50 62/98/52
f 61/97/51 62/98/52 63/99/53
f 63/99/53 62/98/52 64/100/54
f 63/99/53 64/100/54 65/101/55
f 65/101/55 64/100/54 66/102/56
f 65/101/55 66/102/56 67/103/57
f 67/103/57 66/102/56 68/104/58
f 57/105/47 39/106/29 40/107/30
f 39/106/29 57/105/47 59/108/49
f 29/109/18 62/110/52 60/111/50
f 62/110/52 29/109/18 30/112/19
f 65/113/55 37/114/27 63/115/53
f 37/114/27 65/113/55 36/116/26
f 28/117/17 60/118/50 58/119/48
f 60/118/50 28/117/17 29/120/18
f 31/121/20 66/122/56 64/123/54
f 66/122/56 31/121/20 32/124/21
f 68/125/58 35/126/25 67/127/57
f 35/126/25 68/125/58 33/128/22
f 55/129/45 40/130/30 41/131/31
f 40/130/30 55/129/45 57/132/47
f 28/133/17 56/134/46 27/135/16
f 56/134/46 28/133/17 58/136/48
f 61/137/51 39/138/29 59/139/49
f 39/138/29 61/137/51 38/140/28
f 63/141/53 38/142/28 61/143/51
f 38/142/28 63/141/53 37/144/27
f 67/145/57 36/146/26 65/147/55
f 36/146/26 67/145/57 35/148/25
f 51/149/41 42/150/32 43/151/33
f 42/150/32 51/149/41 53/152/43
f 32/153/21 68/154/58 66/155/56
f 68/154/58 32/153/21 33/156/22
f 23/157/11 48/158/38 22/159/10
f 48/158/38 23/157/11 50/160/40
f 53/161/43 41/162/31 42/163/32
f 41/162/31 53/161/43 55/164/45
f 49/165/39 43/166/33 44/167/34
f 43/166/33 49/165/39 51/168/41
f 46/169/36 44/170/34 34/171/23
f 44/170/34 46/169/36 49/172/39
f 47/173/37 34/174/23 25/175/14
f 34/174/23 47/173/37 46/176/36
f 21/177/8 47/178/37 25/179/14
f 47/178/37 21/177/8 45/180/35
f 22/181/10 45/182/35 21/183/8
f 45/182/35 22/181/10 48/184/38
f 24/185/12 50/186/40 23/187/11
f 50/186/40 24/185/12 52/188/42
f 26/189/15 52/190/42 24/191/12
f 52/190/42 26/189/15 54/192/44
f 27/193/16 54/194/44 26/195/15
f 54/194/44 27/193/16 56/196/46
f 30/197/19 64/198/54 62/199/52
f 64/198/54 30/197/19 31/200/20
